<?xml version="1.0" encoding="UTF-8" standalone="no"?>
<!-- Created with Inkscape (http://www.inkscape.org/) -->

<svg
   version="1.1"
   id="svg1"
   width="360"
   height="360"
   viewBox="0 0 360 360"
   xmlns="http://www.w3.org/2000/svg"
   xmlns:svg="http://www.w3.org/2000/svg">
  <defs
     id="defs1" />
  <rect
     style="fill:#000000;fill-opacity:1"
     id="rect12"
     width="360"
     height="360"
     x="0.4078126"
     y="-0.71062517" />
  <path
     style="display:none;fill:#000000"
     id="rect11"
     width="320"
     height="320"
     x="-0.29819918"
     y="0.1696682"
     d="M 51.485339,0.1696682 H 269.89662 A 49.805184,49.805184 45 0 1 319.7018,49.974852 l 0,219.895048 a 50.299772,50.299772 135 0 1 -50.29977,50.29977 H 50.99075 A 51.288949,51.288949 45 0 1 -0.29819918,268.88072 V 51.953206 A 51.783538,51.783538 135 0 1 51.485339,0.1696682 Z"
     transform="matrix(1.125,0,0,1.125,0.0372749,-0.02120852)" />
  <g
     id="g1">
    <path
       style="display:none;fill:#d4940a;fill-opacity:1;stroke-width:2.21196"
       d="m 176.309,257.54101 0.17777,-203.007641 c 3e-5,-0.03534 24.27256,-0.07352 24.27256,-0.07352 l 78.64326,58.170231 -28.73022,59.19075 59.63197,85.70242 c 0,0 -31.07334,0.0284 -32.16549,-1.60717 l -55.87532,-83.67781 c 0.0451,0.0657 27.11611,-55.85891 27.11611,-55.85891 L 200.78039,83.140249 200.3541,257.2607 c 0,0 -23.62848,0.89919 -24.0451,0.28031 z"
       id="path2" />
    <path
       style="fill:#d4940a;fill-opacity:1;stroke-width:2.59827"
       d="m 116.415,292.36626 0.21562,-230.928569 c 5e-5,-0.04015 29.4417,-0.08361 29.4417,-0.08361 l 95.39124,66.170759 -34.84865,67.33162 72.3313,97.48962 c 0,0 -37.69078,0.0323 -39.01551,-1.82822 l -67.77462,-95.18654 c 0.0547,0.0747 32.89081,-63.54154 32.89081,-63.54154 L 146.09785,93.979057 145.58078,292.0474 c 0,0 -28.66044,1.02286 -29.16578,0.31886 z"
       id="path2-3" />
  </g>
</svg>
